<!DOCTYPE svg PUBLIC "-//W3C//DTD SVG 20010904//EN" "http://www.w3.org/TR/2001/REC-SVG-20010904/DTD/svg10.dtd"[]><svg version="1.0" xmlns="http://www.w3.org/2000/svg" width="40" height="27" viewBox="0 0 919.000000 624.000000" preserveAspectRatio="xMidYMid meet"><g transform="translate(0.000000,624.000000) scale(0.100000,-0.100000)" fill="#000000" stroke="none"><path d="M0 3120 l0 -3120 4595 0 4595 0 0 3120 0 3120 -4595 0 -4595 0 0 -3120z m4819 1951 c75 -28 471 -172 881 -322 410 -149 819 -299 910 -332 91 -33 167 -62 170 -66 3 -3 10 -6 15 -6 23 -1 125 -39 125 -47 0 -5 5 -6 10 -3 6 3 10 1 10 -5 0 -6 4 -9 9 -5 5 3 13 0 16 -6 4 -5 12 -8 19 -6 7 3 23 -1 37 -9 23 -14 22 -14 -16 -9 -68 10 -125 27 -119 36 3 5 -1 6 -8 4 -13 -5 -350 95 -1668 497 l-536 163 -1169 -356 c-644 -196 -1172 -355 -1174 -353 -2 2 -11 -2 -20 -8 -10 -8 -9 -4 3 9 10 13 23 20 27 17 5 -3 9 0 9 7 0 7 10 9 25 7 13 -3 22 -2 20 2 -3 5 3 11 13 15 41 16 431 159 1032 379 355 129 773 282 930 340 157 57 291 105 299 105 8 1 75 -21 150 -48z m-2811 -1461 c18 -11 38 -33 43 -48 7 -22 26 -36 77 -59 37 -17 86 -36 109 -42 44 -12 79 -47 89 -88 5 -20 13 -23 55 -24 60 -2 66 -3 73 -10 10 -9 -171 -19 -356 -19 l-168 0 0 -226 0 -226 143 5 c78 3 147 5 152 6 6 0 58 -3 118 -5 83 -5 107 -9 107 -20 0 -11 -18 -14 -84 -14 l-85 0 6 -37 c3 -21 12 -43 19 -49 8 -6 11 -14 7 -17 -11 -12 -183 -8 -183 3 0 6 7 13 15 16 10 4 15 20 15 45 l0 38 -127 3 -128 3 -3 251 -2 251 46 7 c26 3 66 6 90 6 54 0 56 14 7 38 -63 32 -193 7 -193 -37 0 -10 -11 -35 -25 -55 -21 -31 -25 -49 -25 -110 0 -67 2 -74 30 -101 17 -16 30 -36 30 -46 0 -26 -29 -89 -41 -89 -6 0 -25 32 -42 70 -22 51 -36 70 -50 70 -10 0 -15 -4 -12 -10 3 -5 -1 -22 -9 -37 -8 -16 -15 -23 -15 -18 -1 6 3 17 8 24 6 9 6 22 0 33 -10 19 14 38 51 38 20 0 20 4 18 138 l-3 137 -35 5 c-27 4 -31 7 -17 13 10 4 25 7 33 7 24 0 54 -39 54 -71 0 -17 4 -28 10 -24 15 9 12 58 -6 83 -21 30 -58 44 -87 33 -18 -7 -24 -6 -24 4 0 8 4 12 9 9 4 -3 8 0 8 5 0 6 16 11 36 11 41 0 94 33 94 58 0 41 62 91 115 92 11 0 35 -9 53 -20z m3090 -237 c4 -38 -14 -43 -58 -18 -14 8 -46 14 -72 15 l-48 0 0 -165 c0 -125 4 -175 15 -202 8 -19 15 -39 15 -44 0 -5 -29 -9 -65 -9 -70 0 -75 5 -50 50 11 19 14 67 15 196 0 171 0 172 -23 178 -26 6 -93 -10 -102 -24 -4 -6 -15 -10 -26 -10 -15 0 -19 7 -19 34 l0 35 208 -2 207 -2 3 -32z m356 -162 c48 -123 87 -208 102 -222 13 -12 24 -26 24 -31 0 -4 -32 -8 -71 -8 -64 0 -70 2 -64 18 16 38 16 50 1 85 l-15 37 -108 0 -109 0 -17 -46 c-11 -32 -14 -51 -7 -64 12 -23 4 -30 -37 -30 -36 0 -44 18 -19 40 8 6 45 89 82 183 102 260 89 237 127 237 l34 0 77 -199z m299 193 c3 -3 -3 -20 -14 -37 -17 -28 -19 -52 -19 -209 l0 -178 63 0 c34 1 80 7 102 15 54 20 57 19 53 -12 l-3 -28 -157 -3 c-90 -1 -158 1 -158 7 0 4 7 25 15 44 11 27 15 75 15 177 0 102 -4 150 -15 177 -8 19 -15 39 -15 44 0 10 123 13 133 3z m182 -3 c3 -6 -4 -25 -15 -43 -29 -48 -29 -216 0 -273 11 -22 20 -41 20 -42 0 -2 -31 -3 -70 -3 -38 0 -70 3 -70 8 1 4 7 18 15 32 21 36 21 259 0 286 -27 36 -19 44 49 44 36 0 67 -4 71 -9z m421 -10 c22 -10 55 -36 72 -57 l33 -39 -45 -3 c-41 -3 -49 1 -85 37 -52 52 -106 69 -158 50 -101 -39 -119 -178 -40 -309 38 -63 69 -88 119 -96 83 -14 138 30 138 108 0 47 -1 48 -30 48 -20 0 -30 5 -30 15 0 12 14 15 65 15 l65 0 0 -97 0 -98 -57 -1 c-32 -1 -88 -5 -125 -9 -86 -10 -143 5 -199 53 -134 115 -92 326 76 386 58 21 152 19 201 -3z m-2709 -186 c45 -114 85 -201 101 -217 l26 -28 -67 0 c-65 0 -67 1 -57 21 9 15 7 32 -5 69 l-16 49 -114 3 c-62 2 -113 1 -113 -2 1 -18 -4 -30 -13 -30 -13 0 -1 42 15 52 6 4 8 8 5 8 -7 0 43 142 76 215 10 22 17 44 16 48 -1 5 15 7 35 5 l37 -3 74 -190z m282 158 c-16 -32 -19 -60 -19 -210 l0 -173 65 0 c36 0 82 7 102 15 49 21 55 19 51 -12 l-3 -28 -140 2 c-77 2 -148 3 -158 3 -17 0 -17 1 0 27 27 40 27 332 0 381 l-18 32 70 0 69 0 -19 -37z m333 1 c2 -19 1 -37 -3 -40 -4 -2 -29 7 -56 21 -26 13 -65 27 -85 31 l-38 6 0 -76 0 -76 50 0 c38 0 50 -4 50 -15 0 -11 -12 -15 -50 -15 l-50 0 0 -71 0 -71 38 7 c20 4 58 18 85 33 55 29 71 23 61 -26 l-6 -32 -139 0 c-77 0 -139 3 -139 8 0 4 7 16 15 26 21 28 21 264 0 292 -8 10 -15 22 -15 27 0 4 63 7 139 7 l139 0 4 -36z m298 -162 l125 -197 3 50 c5 73 -2 207 -12 228 -7 15 -3 17 33 17 44 0 54 -16 26 -40 -12 -10 -15 -41 -15 -161 l0 -149 -34 0 c-32 0 -37 5 -128 148 -53 81 -111 172 -129 202 l-34 55 -3 -178 c-1 -103 2 -185 7 -196 13 -24 5 -31 -36 -31 -36 0 -39 6 -18 34 12 16 15 56 15 191 0 135 -3 175 -15 191 -23 30 -18 34 38 34 l52 -1 125 -197z m2200 -2 c69 -110 129 -200 133 -200 11 0 4 360 -7 383 -7 15 -3 17 28 17 40 0 43 -5 20 -32 -15 -15 -17 -45 -16 -214 l2 -195 -36 3 c-35 3 -40 9 -149 178 -62 96 -120 184 -129 195 -14 18 -15 5 -13 -165 1 -102 4 -192 7 -200 4 -11 -4 -16 -27 -18 -24 -2 -33 1 -33 12 0 8 5 18 10 21 6 4 10 78 10 189 0 151 -3 186 -15 196 -26 22 -16 30 38 29 l52 0 125 -199z m475 190 c-19 -7 -18 -8 5 -12 21 -5 20 -5 -7 -7 -18 0 -33 2 -33 7 0 4 -20 6 -45 4 l-45 -4 0 -199 0 -199 34 0 c19 0 42 -3 52 -7 11 -4 15 -3 11 4 -5 7 1 9 15 5 16 -4 19 -2 13 9 -5 8 -5 11 0 7 4 -4 14 -3 21 3 9 7 12 6 10 -3 -4 -32 -18 -36 -136 -37 l-121 -2 18 33 c26 48 27 327 0 375 l-17 32 122 0 c71 -1 114 -4 103 -9z m-4812 -115 c1 -6 -73 -11 -205 -13 -184 -2 -207 -1 -202 13 5 13 34 15 205 13 122 -2 200 -7 202 -13z m4847 -139 c-7 -7 -13 -7 -20 0 -6 6 -3 10 10 10 13 0 16 -4 10 -10z m-66 -12 c3 -9 3 -20 0 -25 -8 -14 -26 1 -20 16 3 8 0 16 -7 19 -7 2 -5 5 4 5 9 1 20 -6 23 -15z m26 -4 c0 -5 -2 -10 -4 -10 -3 0 -8 5 -11 10 -3 6 -1 10 4 10 6 0 11 -4 11 -10z m-3850 -143 c11 -21 11 -21 -4 -3 -9 11 -16 16 -16 12 0 -4 -5 -4 -10 -1 -6 4 -8 11 -4 16 7 12 22 3 34 -24z m-955 -58 c10 -10 -114 -15 -285 -10 -127 3 -170 17 -63 20 37 1 70 4 73 7 8 9 264 -7 275 -17z m4637 -526 c-6 -2 -9 -10 -6 -15 4 -7 2 -8 -5 -4 -13 9 -5 26 12 25 9 0 8 -2 -1 -6z m-26 -25 c4 -6 3 -8 -3 -5 -6 4 -16 0 -23 -8 -6 -7 -19 -11 -28 -8 -9 3 -14 3 -10 -2 4 -4 -66 -42 -155 -85 -1325 -631 -2134 -1013 -2142 -1013 -5 0 -107 43 -225 96 -302 134 -1603 714 -1792 799 -87 39 -155 74 -152 79 3 5 -1 6 -9 4 -14 -6 -103 30 -112 45 -4 6 -10 8 -15 5 -4 -3 -12 1 -18 8 -8 10 -6 13 9 13 10 0 19 -4 19 -8 0 -4 3 -7 8 -7 21 4 42 -2 38 -10 -4 -5 3 -7 14 -4 11 3 20 1 20 -4 0 -5 6 -10 13 -10 6 0 68 -21 137 -47 294 -112 919 -353 1834 -707 l230 -88 720 298 c397 164 915 378 1151 475 237 97 437 181 445 186 21 12 38 12 46 -2z m-4706 -58 c0 -5 -4 -10 -10 -10 -5 0 -10 5 -10 10 0 6 5 10 10 10 6 0 10 -4 10 -10z" /><path d="M1911 3587 c-14 -6 -26 -18 -29 -25 -3 -11 0 -12 16 -3 73 39 139 -43 80 -99 -12 -11 -16 -20 -9 -20 22 0 61 48 61 75 0 31 -49 85 -77 85 -10 0 -29 -6 -42 -13z" /><path d="M1868 3503 c-32 -21 -58 -40 -58 -43 0 -3 9 -16 19 -29 l18 -24 62 42 c49 33 62 47 59 64 -5 34 -37 31 -100 -10z" /><path d="M2046 3465 l-16 -25 76 -37 c74 -37 76 -37 90 -19 8 11 14 23 14 28 0 6 -131 78 -144 78 -2 0 -11 -11 -20 -25z" /><path d="M2237 3406 c3 -13 0 -27 -6 -30 -23 -14 -10 -26 29 -26 46 0 51 13 19 54 -26 33 -48 34 -42 2z" /><path d="M1780 3092 c0 -21 33 -81 42 -76 16 10 8 41 -17 64 -14 13 -25 18 -25 12z" /><path d="M2208 2849 c-12 -7 -18 -22 -18 -49 0 -39 1 -40 35 -40 33 0 35 2 35 34 0 27 -21 68 -33 66 -1 0 -10 -5 -19 -11z" /><path d="M5280 3253 c-23 -59 -44 -114 -47 -120 -4 -10 17 -13 86 -13 66 0 91 3 91 13 0 11 -78 218 -85 225 -1 2 -22 -46 -45 -105z" /><path d="M3472 3263 c-22 -60 -44 -116 -48 -125 -6 -16 3 -18 94 -18 l100 0 -45 118 c-25 64 -48 120 -52 125 -4 4 -26 -41 -49 -100z" /></g></svg>